<svg width="1190" height="318" viewBox="0 0 1190 318" xmlns="http://www.w3.org/2000/svg"><title>website-title</title><path d="M123.785 19H0v123.49h70.734c-.843 52.442-12.632 67.666-63.155 82.045l29.472 44.828c68.208-27.066 86.734-54.132 86.734-126.873V19zm165.887 0H165.888v123.49h70.734c-.842 52.442-12.63 67.666-63.155 82.045l29.472 44.828c68.208-27.066 86.733-54.132 86.733-126.873V19zm79.033 48.827c0-8.344 1.54-16.117 4.619-23.319 3.08-7.201 7.35-13.484 12.814-18.848 5.463-5.364 11.994-9.56 19.594-12.59 7.599-3.03 15.967-4.545 25.106-4.545 9.04 0 17.383 1.515 25.032 4.544 7.649 3.03 14.23 7.227 19.743 12.591 5.513 5.364 9.809 11.647 12.888 18.848 3.08 7.202 4.619 14.975 4.619 23.319 0 7.748-1.266 14.95-3.8 21.605-2.533 6.655-6.183 12.566-10.951 17.731l19.072 19.966-26.82 4.172-10.281-10.579c-4.37 1.987-9.014 3.551-13.931 4.694-4.918 1.142-10.108 1.713-15.571 1.713-9.139 0-17.507-1.515-25.107-4.544-7.599-3.03-14.13-7.227-19.593-12.591-5.463-5.364-9.735-11.647-12.814-18.849-3.08-7.201-4.619-14.974-4.619-23.318zm30.545 0c0 4.47.844 8.592 2.533 12.367 1.689 3.775 3.973 7.053 6.854 9.834 2.88 2.781 6.233 4.942 10.058 6.481 3.824 1.54 7.872 2.31 12.143 2.31 2.583 0 5.165-.298 7.748-.894l-16.688-17.582 27.565-3.427 7.748 8.195c3.576-4.967 5.364-10.728 5.364-17.284 0-4.47-.844-8.592-2.533-12.367-1.689-3.775-3.998-7.053-6.928-9.834-2.93-2.781-6.308-4.942-10.132-6.481-3.825-1.54-7.873-2.31-12.144-2.31s-8.32.77-12.144 2.31-7.176 3.7-10.057 6.481c-2.88 2.781-5.165 6.06-6.854 9.834-1.689 3.775-2.533 7.897-2.533 12.367zm128.048-20.264v43.061c0 9.437 4.569 14.155 13.708 14.155 9.138 0 13.708-4.718 13.708-14.155V47.563h26.969v48.276c0 10.33-3.403 18.079-10.207 23.244-6.804 5.165-16.961 7.748-30.47 7.748-13.51 0-23.667-2.583-30.471-7.748-6.804-5.165-10.206-12.913-10.206-23.244V47.563h26.969zm89.456 37.846c0 2.583.472 4.942 1.416 7.078.943 2.135 2.185 3.998 3.725 5.587 1.54 1.59 3.377 2.831 5.513 3.725 2.135.894 4.395 1.341 6.779 1.341 2.384 0 4.644-.447 6.78-1.341 2.135-.894 3.973-2.136 5.513-3.725 1.54-1.59 2.78-3.452 3.725-5.587.943-2.136 1.415-4.446 1.415-6.929 0-2.384-.472-4.644-1.415-6.78-.944-2.135-2.186-3.998-3.725-5.587-1.54-1.59-3.378-2.831-5.513-3.725-2.136-.894-4.396-1.341-6.78-1.341-2.384 0-4.644.447-6.78 1.341-2.135.894-3.973 2.136-5.512 3.725a19.26 19.26 0 0 0-3.725 5.513c-.944 2.086-1.416 4.321-1.416 6.705zm-28.459-.298c0-5.662 1.142-10.951 3.427-15.868a38.96 38.96 0 0 1 9.536-12.814c4.073-3.626 8.915-6.482 14.528-8.568 5.612-2.086 11.746-3.129 18.401-3.129 6.556 0 12.64 1.018 18.253 3.054 5.612 2.037 10.48 4.868 14.602 8.493 4.122 3.626 7.325 7.947 9.61 12.964 2.285 5.016 3.427 10.554 3.427 16.613 0 6.06-1.167 11.597-3.501 16.614-2.335 5.016-5.538 9.337-9.611 12.963-4.073 3.625-8.965 6.431-14.676 8.418-5.712 1.987-11.896 2.98-18.551 2.98-6.556 0-12.615-.993-18.178-2.98-5.563-1.987-10.355-4.818-14.378-8.493-4.024-3.675-7.177-8.07-9.462-13.187-2.285-5.115-3.427-10.802-3.427-17.06zm129.09-15.049V124h-26.968V70.062h-8.94V47.563h8.94V24.617h26.969v22.946h15.347v22.499h-15.347zm16.745-22.499h26.969v9.387c7.35-7.053 15.595-10.579 24.734-10.579 11.324 0 19.966 4.768 25.926 14.304 6.06-9.635 14.701-14.453 25.926-14.453 3.576 0 6.953.521 10.132 1.564 3.179 1.044 5.91 2.682 8.195 4.917 2.285 2.236 4.098 5.141 5.439 8.717 1.34 3.576 2.011 7.897 2.011 12.963V124h-26.969V86.303c0-3.874-.273-7.053-.82-9.536-.546-2.483-1.34-4.42-2.383-5.811-1.043-1.39-2.26-2.334-3.651-2.831-1.39-.497-2.88-.745-4.47-.745-8.642 0-12.963 6.308-12.963 18.923V124h-26.969V86.303c0-3.874-.248-7.077-.745-9.61-.497-2.534-1.217-4.545-2.16-6.035-.944-1.49-2.161-2.508-3.651-3.055-1.49-.546-3.228-.819-5.215-.819-1.689 0-3.278.248-4.768.745-1.49.497-2.806 1.465-3.948 2.906-1.143 1.44-2.037 3.426-2.682 5.96-.646 2.533-.969 5.835-.969 9.908V124H734.13V47.563zm164.106 37.995c0 2.483.447 4.793 1.34 6.928.895 2.136 2.111 3.999 3.651 5.588 1.54 1.59 3.377 2.831 5.513 3.725 2.136.894 4.445 1.341 6.929 1.341 2.384 0 4.643-.447 6.779-1.341 2.136-.894 3.973-2.136 5.513-3.725a19.26 19.26 0 0 0 3.725-5.513c.944-2.086 1.416-4.321 1.416-6.705 0-2.384-.472-4.644-1.416-6.78-.944-2.135-2.185-3.998-3.725-5.587-1.54-1.59-3.377-2.831-5.513-3.725-2.136-.894-4.395-1.341-6.78-1.341-2.483 0-4.792.447-6.928 1.341-2.136.894-3.973 2.136-5.513 3.725a18.36 18.36 0 0 0-3.65 5.438c-.894 2.037-1.341 4.247-1.341 6.631zm33.972-37.995h27.118V124h-27.118v-8.493c-5.762 7.251-13.56 10.877-23.393 10.877-5.563 0-10.679-1.018-15.347-3.055a37.011 37.011 0 0 1-12.218-8.567c-3.477-3.675-6.184-7.996-8.121-12.963-1.937-4.967-2.905-10.38-2.905-16.241 0-5.463.943-10.653 2.83-15.57 1.888-4.918 4.52-9.214 7.898-12.889 3.377-3.675 7.4-6.58 12.069-8.716 4.668-2.136 9.834-3.204 15.496-3.204 9.536 0 17.433 3.328 23.69 9.983v-7.599zm36.71 0h26.97v12.516c2.88-4.57 6.406-8.07 10.578-10.505 4.172-2.433 9.04-3.65 14.602-3.65h2.31c.844 0 1.812.1 2.905.298v25.777c-3.576-1.788-7.45-2.682-11.622-2.682-6.258 0-10.951 1.862-14.08 5.588-3.13 3.725-4.694 9.163-4.694 16.315V124h-26.969V47.563zM1056.587.33v74.798l28.31-27.565h36.952l-38.293 35.313L1124.084 124h-37.846l-29.651-31.141V124h-26.97V.33h26.97zm121.044 66.901c-4.967-2.583-9.834-3.874-14.602-3.874-2.483 0-4.495.497-6.034 1.49-1.54.993-2.31 2.334-2.31 4.023 0 .894.124 1.614.373 2.16.248.547.794 1.068 1.639 1.565.844.497 2.086.944 3.725 1.341 1.639.397 3.8.894 6.481 1.49 7.45 1.49 13.013 4.147 16.688 7.971 3.675 3.825 5.513 8.717 5.513 14.677 0 4.47-.894 8.493-2.682 12.069a25.668 25.668 0 0 1-7.45 9.014c-3.179 2.434-7.003 4.321-11.473 5.663-4.47 1.34-9.387 2.011-14.75 2.011-10.332 0-20.513-2.93-30.546-8.791l9.834-19.072c7.55 5.165 14.701 7.748 21.456 7.748 2.483 0 4.52-.546 6.11-1.639 1.588-1.093 2.383-2.483 2.383-4.172 0-.993-.124-1.813-.372-2.459-.249-.645-.77-1.241-1.565-1.787-.795-.547-1.962-1.043-3.501-1.49-1.54-.448-3.552-.92-6.035-1.416-8.344-1.689-14.18-4.197-17.507-7.525-3.328-3.327-4.992-7.921-4.992-13.782 0-4.271.795-8.12 2.384-11.547 1.59-3.428 3.874-6.333 6.854-8.717 2.98-2.384 6.58-4.222 10.803-5.513 4.221-1.291 8.915-1.937 14.08-1.937 8.443 0 16.638 1.639 24.585 4.917l-9.089 17.582zM402.975 216.867h5.513c5.761 0 10.182-1.192 13.261-3.576 3.08-2.384 4.619-5.811 4.619-10.281 0-4.47-1.54-7.897-4.619-10.281-3.08-2.384-7.5-3.576-13.261-3.576h-5.513v27.714zM467.194 279h-36.356l-27.863-43.21V279h-29.204V166.654h45.445c6.258 0 11.721.919 16.39 2.757 4.669 1.837 8.518 4.345 11.548 7.524 3.03 3.179 5.314 6.854 6.853 11.026 1.54 4.172 2.31 8.642 2.31 13.41 0 8.543-2.061 15.471-6.183 20.785-4.123 5.315-10.207 8.916-18.253 10.803L467.194 279zm55.187-49.319c-.894-3.775-2.732-6.804-5.513-9.089-2.782-2.285-6.16-3.427-10.132-3.427-4.173 0-7.575 1.093-10.207 3.278-2.632 2.185-4.296 5.265-4.991 9.238h30.843zm-31.588 15.645c0 11.622 5.463 17.433 16.39 17.433 5.86 0 10.28-2.384 13.26-7.152h26.076c-5.265 17.483-18.427 26.224-39.485 26.224-6.457 0-12.367-.968-17.731-2.906-5.365-1.937-9.959-4.693-13.783-8.269-3.824-3.576-6.78-7.847-8.865-12.814-2.087-4.967-3.13-10.53-3.13-16.688 0-6.357.994-12.094 2.98-17.21 1.987-5.115 4.818-9.461 8.494-13.037 3.675-3.576 8.12-6.332 13.335-8.27 5.215-1.937 11.1-2.905 17.657-2.905 6.456 0 12.267.968 17.433 2.905 5.165 1.938 9.535 4.744 13.112 8.419 3.576 3.675 6.307 8.17 8.195 13.484 1.887 5.315 2.83 11.3 2.83 17.955v2.831h-56.768zm124.322-4.321c0-2.384-.422-4.644-1.266-6.78a16.269 16.269 0 0 0-3.651-5.587c-1.59-1.59-3.452-2.856-5.587-3.8-2.136-.943-4.446-1.415-6.929-1.415-2.384 0-4.619.447-6.705 1.341a16.58 16.58 0 0 0-5.438 3.725c-1.54 1.59-2.782 3.452-3.725 5.588a16.589 16.589 0 0 0-1.416 6.779c0 2.384.447 4.619 1.341 6.705a16.58 16.58 0 0 0 3.725 5.439c1.59 1.54 3.452 2.78 5.588 3.724a16.589 16.589 0 0 0 6.779 1.416c2.384 0 4.619-.447 6.705-1.341a16.58 16.58 0 0 0 5.439-3.725 19.26 19.26 0 0 0 3.725-5.513 15.73 15.73 0 0 0 1.415-6.556zm-33.972 76.139h-26.969V202.563h26.969v8.493c5.761-7.251 13.609-10.877 23.542-10.877 5.463 0 10.554 1.068 15.273 3.203 4.718 2.136 8.815 5.042 12.292 8.717 3.477 3.675 6.184 7.996 8.12 12.963 1.938 4.967 2.906 10.281 2.906 15.943 0 5.662-.968 10.927-2.905 15.794-1.937 4.867-4.62 9.139-8.046 12.814-3.428 3.675-7.475 6.556-12.144 8.642-4.669 2.086-9.735 3.129-15.198 3.129-9.536 0-17.483-3.278-23.84-9.834v45.594zm95.715-161.814V279h-26.97V155.33h26.97zm34.773 85.228c0 2.483.447 4.793 1.341 6.929.894 2.135 2.11 3.998 3.65 5.587 1.54 1.59 3.378 2.831 5.514 3.725 2.135.894 4.445 1.341 6.928 1.341 2.384 0 4.644-.447 6.78-1.341 2.135-.894 3.973-2.136 5.513-3.725a19.26 19.26 0 0 0 3.725-5.513c.943-2.086 1.415-4.321 1.415-6.705 0-2.384-.472-4.644-1.415-6.78-.944-2.135-2.186-3.998-3.725-5.587-1.54-1.59-3.378-2.831-5.513-3.725-2.136-.894-4.396-1.341-6.78-1.341-2.483 0-4.793.447-6.928 1.341-2.136.894-3.974 2.136-5.513 3.725a18.36 18.36 0 0 0-3.651 5.439c-.894 2.036-1.341 4.246-1.341 6.63zm33.972-37.995h27.118V279h-27.118v-8.493c-5.761 7.251-13.559 10.877-23.393 10.877-5.563 0-10.678-1.018-15.347-3.055a37.011 37.011 0 0 1-12.218-8.567c-3.477-3.675-6.183-7.996-8.12-12.963-1.937-4.967-2.906-10.38-2.906-16.241 0-5.463.944-10.653 2.831-15.57 1.887-4.918 4.52-9.214 7.897-12.889 3.377-3.675 7.4-6.58 12.069-8.716 4.669-2.136 9.834-3.204 15.496-3.204 9.536 0 17.433 3.328 23.691 9.983v-7.599zm94.374 24.734c-4.67-3.179-9.387-4.768-14.155-4.768-2.583 0-4.992.447-7.227 1.341a17.91 17.91 0 0 0-5.885 3.8c-1.69 1.639-3.005 3.575-3.949 5.81-.944 2.236-1.415 4.744-1.415 7.525 0 2.682.471 5.14 1.415 7.376.944 2.235 2.235 4.171 3.874 5.81 1.64 1.64 3.6 2.906 5.886 3.8 2.284.894 4.718 1.341 7.3 1.341 5.067 0 9.785-1.738 14.156-5.215v22.946c-6.656 2.88-12.963 4.321-18.923 4.321-5.563 0-10.853-.944-15.869-2.831s-9.437-4.594-13.261-8.12c-3.824-3.527-6.879-7.748-9.163-12.666-2.285-4.917-3.427-10.405-3.427-16.464 0-6.06 1.092-11.597 3.278-16.613 2.185-5.017 5.165-9.338 8.94-12.964 3.774-3.625 8.269-6.456 13.484-8.493 5.215-2.036 10.803-3.054 16.763-3.054 6.556 0 12.615 1.39 18.178 4.172v22.946zm62.487 2.384c-.894-3.775-2.732-6.804-5.513-9.089-2.781-2.285-6.159-3.427-10.132-3.427-4.172 0-7.574 1.093-10.206 3.278-2.633 2.185-4.297 5.265-4.992 9.238h30.843zm-31.588 15.645c0 11.622 5.463 17.433 16.39 17.433 5.86 0 10.281-2.384 13.261-7.152h26.075c-5.265 17.483-18.426 26.224-39.485 26.224-6.457 0-12.367-.968-17.73-2.906-5.365-1.937-9.96-4.693-13.783-8.269-3.825-3.576-6.78-7.847-8.866-12.814-2.086-4.967-3.129-10.53-3.129-16.688 0-6.357.993-12.094 2.98-17.21 1.987-5.115 4.818-9.461 8.493-13.037 3.675-3.576 8.12-6.332 13.336-8.27 5.215-1.937 11.1-2.905 17.656-2.905 6.457 0 12.268.968 17.433 2.905 5.165 1.938 9.536 4.744 13.112 8.419 3.576 3.675 6.308 8.17 8.195 13.484 1.887 5.315 2.831 11.3 2.831 17.955v2.831h-56.769zm63.382-42.763h26.969v12.516c2.88-4.57 6.407-8.07 10.579-10.505 4.172-2.433 9.039-3.65 14.602-3.65h2.31c.843 0 1.812.1 2.905.298v25.777c-3.576-1.788-7.45-2.682-11.622-2.682-6.258 0-10.952 1.862-14.08 5.588-3.13 3.725-4.694 9.163-4.694 16.315V279h-26.97v-76.437z" fill-rule="evenodd"/></svg>