<?xml version="1.0" encoding="utf-8"?>
<!-- Generator: Adobe Illustrator 16.2.1, SVG Export Plug-In . SVG Version: 6.00 Build 0)  -->
<!DOCTYPE svg PUBLIC "-//W3C//DTD SVG 1.1//EN" "http://www.w3.org/Graphics/SVG/1.1/DTD/svg11.dtd">
<svg version="1.1" xmlns="http://www.w3.org/2000/svg" xmlns:xlink="http://www.w3.org/1999/xlink" x="0px" y="0px" width="2458px"
	 height="223px" viewBox="0 0 2458 223" enable-background="new 0 0 2458 223" xml:space="preserve">
<g id="Text">
	<g>
		<path d="M713.983,174.005c-10.708,0-19.963-1.854-27.762-5.553c-7.802-3.699-14.212-8.824-19.235-15.368
			c-5.025-6.544-8.759-14.277-11.204-23.2c-2.448-8.924-3.668-18.671-3.668-29.25c0-10.575,1.221-20.39,3.668-29.447
			c2.445-9.054,6.179-16.887,11.204-23.499c5.023-6.609,11.434-11.765,19.235-15.467c7.799-3.699,17.054-5.552,27.762-5.552
			c10.708,0,19.96,1.853,27.762,5.552c7.799,3.703,14.209,8.858,19.235,15.467c5.022,6.612,8.756,14.445,11.204,23.499
			c2.445,9.057,3.668,18.872,3.668,29.447c0,10.578-1.224,20.326-3.668,29.25c-2.448,8.923-6.182,16.656-11.204,23.2
			c-5.026,6.544-11.437,11.669-19.235,15.368C733.944,172.151,724.692,174.005,713.983,174.005z M713.983,149.812
			c20.49,0,30.737-16.391,30.737-49.178c0-16.39-2.479-28.685-7.436-36.883c-4.958-8.195-12.661-12.294-23.103-12.294
			c-20.756,0-31.133,16.394-31.133,49.178C683.048,133.422,693.36,149.812,713.983,149.812z M779.423,182.729
			c-0.266,3.833-0.728,7.765-1.388,11.799c-0.663,4.031-1.72,7.833-3.173,11.402l-49.179-7.932c0.397-2.776,0.725-5.125,0.992-7.04
			c0.263-1.918,0.595-3.702,0.992-5.354c0.396-1.654,0.858-3.306,1.388-4.957c0.527-1.654,1.122-3.47,1.785-5.453L779.423,182.729z"
			/>
		<path d="M796.08,69.105c4.759-0.793,9.451-1.189,14.08-1.189c4.626,0,9.32,0.396,14.08,1.189v54.333
			c0,5.423,0.427,9.884,1.289,13.386c0.858,3.504,2.181,6.28,3.966,8.328c1.785,2.051,3.997,3.504,6.643,4.362
			c2.643,0.861,5.751,1.289,9.32,1.289c4.889,0,8.988-0.462,12.294-1.388V69.105c4.759-0.793,9.385-1.189,13.881-1.189
			c4.626,0,9.32,0.396,14.079,1.189v98.554c-4.232,1.456-9.816,2.875-16.756,4.264c-6.94,1.388-14.179,2.082-21.714,2.082
			c-6.742,0-13.221-0.53-19.434-1.587c-6.215-1.057-11.669-3.303-16.36-6.742c-4.694-3.436-8.428-8.458-11.204-15.07
			c-2.776-6.609-4.165-15.399-4.165-26.374V69.105z"/>
		<path d="M952.736,174.005c-8.329,0-15.566-1.357-21.714-4.065s-11.238-6.476-15.27-11.303c-4.034-4.824-7.074-10.476-9.122-16.955
			c-2.051-6.476-3.074-13.483-3.074-21.02c0-7.535,1.022-14.605,3.074-21.217c2.048-6.609,5.087-12.326,9.122-17.153
			c4.031-4.824,9.122-8.626,15.27-11.402c6.147-2.776,13.385-4.164,21.714-4.164s15.598,1.388,21.813,4.164
			c6.212,2.776,11.368,6.578,15.467,11.402c4.096,4.827,7.139,10.544,9.122,17.153c1.983,6.612,2.975,13.682,2.975,21.217
			c0,7.536-0.992,14.544-2.975,21.02c-1.983,6.479-5.026,12.131-9.122,16.955c-4.099,4.827-9.255,8.595-15.467,11.303
			C968.334,172.647,961.065,174.005,952.736,174.005z M952.736,152.589c7.402,0,12.722-2.742,15.963-8.229
			c3.238-5.484,4.858-13.386,4.858-23.697c0-10.311-1.621-18.209-4.858-23.696c-3.241-5.484-8.561-8.229-15.963-8.229
			c-7.272,0-12.527,2.745-15.765,8.229c-3.241,5.487-4.858,13.385-4.858,23.696c0,10.312,1.617,18.213,4.858,23.697
			C940.209,149.847,945.464,152.589,952.736,152.589z"/>
		<path d="M1025.114,90.521h-12.89l-0.991-3.966l37.082-47.393h4.561v29.943h23.995c0.396,1.983,0.66,3.768,0.793,5.354
			c0.13,1.586,0.198,3.241,0.198,4.958c0,1.853-0.068,3.638-0.198,5.354c-0.133,1.72-0.397,3.638-0.793,5.751h-23.995v40.254
			c0,4.1,0.329,7.405,0.992,9.915c0.66,2.513,1.617,4.496,2.875,5.949c1.255,1.456,2.807,2.447,4.66,2.975
			c1.85,0.529,4.031,0.793,6.544,0.793c1.983,0,3.932-0.164,5.85-0.496c1.915-0.328,3.601-0.626,5.057-0.892
			c0.923,2.513,1.586,5.124,1.983,7.832c0.397,2.711,0.595,5.125,0.595,7.238c0,1.456-0.034,2.677-0.099,3.668
			c-0.068,0.992-0.167,1.952-0.297,2.876c-6.083,1.453-12.363,2.181-18.839,2.181c-12.031,0-21.218-2.807-27.564-8.428
			c-6.346-5.617-9.519-14.772-9.519-27.464V90.521z"/>
		<path d="M1096.304,69.105c1.85-0.396,3.699-0.694,5.552-0.892c1.85-0.198,3.898-0.297,6.147-0.297
			c2.246,0,4.229,0.099,5.949,0.297c1.717,0.198,3.501,0.496,5.354,0.892c0.396,0.663,0.759,1.621,1.09,2.875
			c0.329,1.258,0.626,2.578,0.893,3.966c0.263,1.388,0.496,2.745,0.694,4.065c0.198,1.323,0.363,2.448,0.496,3.371
			c1.056-1.983,2.444-3.966,4.164-5.949c1.717-1.983,3.768-3.768,6.147-5.354c2.379-1.586,5.057-2.875,8.031-3.867
			c2.975-0.992,6.312-1.487,10.014-1.487c15.994,0,26.241,6.082,30.737,18.243c2.643-4.889,6.376-9.152,11.204-12.79
			c4.824-3.634,10.938-5.453,18.343-5.453c11.632,0,20.192,3.207,25.681,9.617c5.484,6.414,8.229,16.428,8.229,30.042v65.24
			c-4.76,0.793-9.453,1.189-14.078,1.189c-4.63,0-9.321-0.396-14.08-1.189v-57.903c0-7.138-0.893-12.623-2.677-16.458
			c-1.785-3.833-5.388-5.75-10.808-5.75c-2.25,0-4.461,0.332-6.643,0.992c-2.181,0.663-4.164,1.884-5.949,3.668
			c-1.785,1.785-3.241,4.297-4.363,7.535c-1.125,3.241-1.686,7.436-1.686,12.592v55.325c-4.759,0.793-9.454,1.189-14.08,1.189
			c-4.629,0-9.32-0.396-14.079-1.189v-57.903c0-7.138-0.893-12.623-2.677-16.458c-1.785-3.833-5.388-5.75-10.808-5.75
			c-2.25,0-4.496,0.332-6.742,0.992c-2.25,0.663-4.263,1.952-6.048,3.867c-1.785,1.918-3.207,4.595-4.263,8.031
			c-1.06,3.439-1.586,7.932-1.586,13.484v53.738c-4.759,0.793-9.454,1.189-14.08,1.189c-4.629,0-9.32-0.396-14.079-1.189V69.105z"/>
		<path d="M1319.789,104.204c0-3.172-0.53-5.75-1.587-7.733c-1.06-1.983-2.513-3.535-4.362-4.66
			c-1.853-1.122-4.133-1.884-6.841-2.28c-2.712-0.396-5.72-0.595-9.023-0.595c-7.139,0-14.742,1.388-22.805,4.164
			c-1.853-3.436-3.241-6.674-4.164-9.716c-0.927-3.04-1.388-6.674-1.388-10.907c5.815-1.983,11.631-3.436,17.45-4.362
			c5.815-0.923,11.235-1.388,16.261-1.388c13.748,0,24.49,3.306,32.224,9.915c7.734,6.612,11.601,17.187,11.601,31.728v59.489
			c-4.629,1.456-10.246,2.845-16.855,4.164c-6.612,1.32-14.079,1.983-22.408,1.983c-6.742,0-12.924-0.595-18.541-1.785
			c-5.62-1.189-10.444-3.173-14.476-5.949c-4.034-2.775-7.14-6.345-9.32-10.708c-2.182-4.362-3.272-9.716-3.272-16.062
			s1.354-11.666,4.065-15.963c2.708-4.295,6.213-7.733,10.51-10.312c4.295-2.578,9.088-4.428,14.377-5.553
			c5.286-1.122,10.575-1.686,15.864-1.686c3.833,0,8.062,0.199,12.691,0.595V104.204z M1319.789,124.629
			c-1.587-0.264-3.306-0.496-5.156-0.694c-1.853-0.198-3.504-0.298-4.957-0.298c-6.479,0-11.601,1.159-15.368,3.471
			c-3.769,2.314-5.652,6.048-5.652,11.203c0,3.439,0.726,6.083,2.182,7.933c1.453,1.853,3.204,3.207,5.255,4.064
			c2.048,0.861,4.229,1.389,6.544,1.587c2.312,0.198,4.329,0.297,6.049,0.297c1.982,0,3.966-0.164,5.948-0.495
			c1.983-0.329,3.7-0.626,5.156-0.893V124.629z"/>
		<path d="M1370.155,69.105c1.983-0.396,3.867-0.694,5.652-0.892c1.784-0.198,3.733-0.297,5.85-0.297
			c1.982,0,3.932,0.133,5.85,0.396c1.915,0.267,3.799,0.595,5.651,0.991c0.396,0.663,0.76,1.621,1.091,2.875
			c0.328,1.258,0.626,2.578,0.893,3.966c0.264,1.388,0.496,2.776,0.694,4.165s0.362,2.547,0.495,3.47
			c2.906-4.096,6.477-7.765,10.709-11.006c4.229-3.238,9.519-4.858,15.863-4.858c1.32,0,2.842,0.068,4.562,0.198
			c1.717,0.133,2.975,0.332,3.768,0.595c0.264,1.323,0.462,2.844,0.595,4.561c0.13,1.72,0.198,3.504,0.198,5.354
			c0,2.25-0.099,4.694-0.297,7.337c-0.198,2.646-0.564,5.156-1.091,7.535c-1.456-0.263-3.074-0.396-4.858-0.396
			c-1.785,0-2.876,0-3.272,0c-2.249,0-4.759,0.232-7.535,0.694c-2.776,0.465-5.422,1.686-7.932,3.669
			c-2.514,1.983-4.596,4.957-6.247,8.923c-1.654,3.966-2.479,9.518-2.479,16.657v48.781c-2.38,0.396-4.76,0.66-7.139,0.793
			c-2.38,0.131-4.694,0.198-6.94,0.198c-2.25,0-4.53-0.067-6.842-0.198c-2.314-0.133-4.729-0.396-7.238-0.793V69.105z"/>
		<path d="M1450.069,26.669c4.492-0.793,9.122-1.19,13.881-1.19s9.45,0.397,14.079,1.19v144.956
			c-4.629,0.793-9.32,1.189-14.079,1.189s-9.389-0.396-13.881-1.189V26.669z M1481.996,117.887l25.382-48.782
			c5.156-0.793,10.377-1.189,15.666-1.189c5.022,0,9.915,0.396,14.675,1.189l-26.176,47.393l30.538,55.127
			c-5.422,0.793-10.644,1.189-15.666,1.189c-4.629,0-9.519-0.396-14.674-1.189L1481.996,117.887z"/>
		<path d="M1575.79,127.008c-7.405-2.113-13.187-5.255-17.351-9.419c-4.165-4.164-6.247-10.411-6.247-18.739
			c0-10.045,3.601-17.912,10.808-23.597c7.204-5.683,17.02-8.527,29.447-8.527c5.156,0,10.244,0.465,15.27,1.388
			c5.022,0.926,10.113,2.314,15.27,4.164c-0.267,3.439-0.927,7.009-1.983,10.708c-1.06,3.703-2.314,6.94-3.768,9.717
			c-3.173-1.32-6.677-2.479-10.51-3.47c-3.836-0.992-7.867-1.487-12.097-1.487c-4.496,0-8,0.694-10.51,2.082
			c-2.513,1.388-3.768,3.604-3.768,6.643c0,2.909,0.893,4.958,2.677,6.147c1.785,1.189,4.329,2.314,7.635,3.371l11.303,3.371
			c3.7,1.06,7.04,2.349,10.015,3.867c2.975,1.521,5.519,3.405,7.635,5.651c2.113,2.249,3.768,5.025,4.957,8.328
			c1.19,3.307,1.785,7.337,1.785,12.097c0,4.893-1.025,9.453-3.074,13.683c-2.051,4.232-5.025,7.9-8.923,11.005
			c-3.901,3.108-8.626,5.553-14.179,7.337c-5.553,1.785-11.833,2.678-18.839,2.678c-3.173,0-6.082-0.1-8.726-0.298
			c-2.646-0.198-5.189-0.529-7.634-0.991c-2.448-0.465-4.858-1.025-7.238-1.686s-4.958-1.519-7.734-2.578
			c0.264-3.569,0.893-7.17,1.885-10.807c0.991-3.635,2.28-7.17,3.866-10.609c4.363,1.72,8.493,3.009,12.395,3.867
			c3.897,0.861,7.963,1.288,12.195,1.288c1.85,0,3.866-0.164,6.048-0.495c2.182-0.329,4.195-0.924,6.048-1.785
			c1.851-0.858,3.402-1.982,4.66-3.371c1.255-1.388,1.884-3.203,1.884-5.453c0-3.173-0.96-5.453-2.875-6.841
			c-1.918-1.389-4.595-2.609-8.031-3.669L1575.79,127.008z"/>
		<path d="M1688.223,29.049c5.815-0.66,11.269-1.221,16.359-1.686c5.088-0.461,10.739-0.694,16.955-0.694
			c7.269,0,14.441,0.663,21.516,1.983c7.07,1.323,13.45,3.668,19.136,7.04c5.683,3.371,10.278,7.932,13.782,13.683
			c3.501,5.75,5.255,13.057,5.255,21.912c0,5.289-0.663,9.949-1.982,13.98c-1.323,4.034-3.009,7.569-5.057,10.609
			c-2.052,3.042-4.264,5.651-6.644,7.833s-4.629,3.935-6.742,5.255l-3.371,2.181l34.703,60.283
			c-2.646,0.264-5.423,0.526-8.329,0.793c-2.909,0.264-5.884,0.396-8.924,0.396c-5.025,0-9.983-0.396-14.872-1.189l-37.281-66.231
			l4.76-2.379c1.85-0.923,4.096-2.113,6.742-3.569c2.643-1.453,5.187-3.272,7.635-5.454c2.444-2.181,4.526-4.824,6.246-7.932
			c1.717-3.104,2.578-6.773,2.578-11.005c0-8.329-2.38-14.442-7.139-18.343c-4.76-3.898-10.907-5.85-18.442-5.85
			c-2.909,0-5.553,0.198-7.932,0.595v120.367c-2.38,0.264-4.76,0.496-7.14,0.694c-2.379,0.198-4.693,0.297-6.94,0.297
			c-2.249,0-4.629-0.068-7.139-0.198c-2.513-0.133-5.091-0.396-7.733-0.793V29.049z"/>
		<path d="M1824.454,128.991c0.527,7.932,3.303,13.683,8.329,17.252c5.022,3.569,11.631,5.354,19.83,5.354
			c4.492,0,9.088-0.428,13.782-1.289c4.69-0.857,9.152-2.082,13.385-3.668c1.453,2.646,2.708,5.818,3.768,9.519
			c1.057,3.702,1.651,7.668,1.785,11.897c-10.312,3.966-21.946,5.949-34.901,5.949c-9.519,0-17.683-1.323-24.49-3.966
			c-6.811-2.644-12.362-6.312-16.657-11.006c-4.298-4.691-7.471-10.277-9.519-16.756c-2.051-6.476-3.073-13.55-3.073-21.218
			c0-7.536,1.057-14.606,3.173-21.218c2.112-6.609,5.255-12.359,9.419-17.252c4.164-4.889,9.32-8.756,15.468-11.601
			c6.147-2.841,13.317-4.263,21.516-4.263c7.139,0,13.484,1.258,19.037,3.768c5.552,2.513,10.277,5.949,14.179,10.312
			c3.897,4.363,6.841,9.552,8.824,15.566c1.982,6.017,2.975,12.462,2.975,19.334c0,2.513-0.1,4.991-0.298,7.437
			c-0.198,2.447-0.431,4.396-0.694,5.85H1824.454z M1864.71,109.359c-0.267-6.345-2.018-11.467-5.256-15.368
			c-3.24-3.898-7.768-5.85-13.583-5.85c-6.612,0-11.635,1.853-15.071,5.552c-3.439,3.703-5.487,8.924-6.147,15.666H1864.71z"/>
		<path d="M1910.913,68.907c1.85-0.396,3.669-0.66,5.453-0.793c1.785-0.13,3.799-0.198,6.049-0.198
			c3.699,0,7.467,0.396,11.303,1.189c0.396,0.663,0.759,1.621,1.091,2.875c0.328,1.258,0.66,2.612,0.991,4.065
			c0.329,1.457,0.595,2.875,0.793,4.264c0.199,1.388,0.363,2.547,0.496,3.47c1.189-2.113,2.644-4.195,4.362-6.247
			c1.717-2.048,3.799-3.867,6.247-5.453c2.444-1.586,5.187-2.875,8.229-3.867c3.039-0.992,6.41-1.487,10.113-1.487
			c5.683,0,11.006,1.06,15.963,3.173c4.958,2.116,9.286,5.323,12.989,9.617c3.699,4.298,6.575,9.686,8.626,16.162
			c2.048,6.479,3.074,14.147,3.074,23.002c0,8.595-1.259,16.294-3.769,23.102c-2.513,6.811-6.147,12.592-10.906,17.351
			c-4.759,4.76-10.578,8.428-17.45,11.006c-6.876,2.578-14.675,3.867-23.4,3.867c-2.249,0-4.461-0.1-6.643-0.298
			s-4-0.431-5.453-0.694v45.608c-2.513,0.397-4.927,0.66-7.238,0.794c-2.314,0.13-4.595,0.198-6.842,0.198
			c-2.249,0-4.529-0.068-6.841-0.198c-2.314-0.134-4.729-0.396-7.238-0.794V68.907z M1939.072,149.812
			c3.569,1.06,7.665,1.586,12.295,1.586c8.195,0,14.476-2.643,18.838-7.932c4.363-5.286,6.544-13.286,6.544-23.994
			c0-4.096-0.331-7.898-0.991-11.402c-0.663-3.501-1.785-6.51-3.371-9.023c-1.587-2.509-3.604-4.493-6.048-5.949
			c-2.448-1.453-5.454-2.181-9.023-2.181c-3.306,0-6.116,0.629-8.428,1.884c-2.314,1.258-4.198,2.975-5.651,5.156
			c-1.456,2.181-2.513,4.728-3.173,7.634c-0.663,2.91-0.991,6.017-0.991,9.32V149.812z"/>
		<path d="M2025.926,26.669c4.759-0.793,9.45-1.19,14.079-1.19c4.493,0,9.122,0.397,13.882,1.19v104.106
			c0,4.1,0.229,7.405,0.693,9.915c0.462,2.513,1.19,4.462,2.182,5.85c0.991,1.389,2.28,2.349,3.867,2.876
			c1.586,0.529,3.569,0.793,5.949,0.793c1.056,0,2.212-0.065,3.47-0.198c1.255-0.13,2.479-0.328,3.669-0.595
			c1.453,5.422,2.181,10.708,2.181,15.863c0,1.06,0,2.018,0,2.876c0,0.861-0.133,1.818-0.396,2.875
			c-2.116,0.66-4.66,1.121-7.635,1.388c-2.975,0.264-5.72,0.396-8.229,0.396c-10.182,0-18.343-2.807-24.49-8.428
			c-6.147-5.617-9.221-14.772-9.221-27.464V26.669z"/>
		<path d="M2144.111,104.204c0-3.172-0.53-5.75-1.587-7.733c-1.06-1.983-2.513-3.535-4.362-4.66
			c-1.853-1.122-4.133-1.884-6.841-2.28c-2.712-0.396-5.72-0.595-9.023-0.595c-7.139,0-14.742,1.388-22.805,4.164
			c-1.853-3.436-3.241-6.674-4.164-9.716c-0.927-3.04-1.388-6.674-1.388-10.907c5.815-1.983,11.631-3.436,17.45-4.362
			c5.815-0.923,11.235-1.388,16.261-1.388c13.748,0,24.49,3.306,32.224,9.915c7.734,6.612,11.601,17.187,11.601,31.728v59.489
			c-4.629,1.456-10.246,2.845-16.855,4.164c-6.612,1.32-14.079,1.983-22.408,1.983c-6.742,0-12.924-0.595-18.541-1.785
			c-5.62-1.189-10.444-3.173-14.476-5.949c-4.034-2.775-7.14-6.345-9.32-10.708c-2.182-4.362-3.272-9.716-3.272-16.062
			s1.354-11.666,4.065-15.963c2.708-4.295,6.213-7.733,10.51-10.312c4.295-2.578,9.088-4.428,14.377-5.553
			c5.286-1.122,10.575-1.686,15.864-1.686c3.833,0,8.062,0.199,12.691,0.595V104.204z M2144.111,124.629
			c-1.587-0.264-3.306-0.496-5.156-0.694c-1.853-0.198-3.504-0.298-4.957-0.298c-6.479,0-11.601,1.159-15.368,3.471
			c-3.769,2.314-5.652,6.048-5.652,11.203c0,3.439,0.726,6.083,2.182,7.933c1.453,1.853,3.204,3.207,5.255,4.064
			c2.048,0.861,4.229,1.389,6.544,1.587c2.312,0.198,4.329,0.297,6.049,0.297c1.982,0,3.966-0.164,5.948-0.495
			c1.983-0.329,3.7-0.626,5.156-0.893V124.629z"/>
		<path d="M2263.288,147.433c1.587,2.646,2.907,5.72,3.967,9.221c1.057,3.505,1.586,7.635,1.586,12.394
			c-5.289,2.116-10.246,3.471-14.872,4.065c-4.63,0.595-9.454,0.893-14.477,0.893c-8.595,0-16.062-1.357-22.408-4.065
			s-11.601-6.444-15.765-11.204c-4.164-4.759-7.307-10.41-9.42-16.954c-2.116-6.544-3.173-13.648-3.173-21.317
			c0-7.535,1.023-14.541,3.074-21.019c2.048-6.476,5.156-12.161,9.32-17.054c4.164-4.889,9.351-8.725,15.566-11.501
			c6.213-2.776,13.416-4.164,21.615-4.164c2.906,0,5.583,0.068,8.031,0.198c2.444,0.133,4.79,0.396,7.039,0.793
			c2.247,0.396,4.493,0.926,6.742,1.586c2.247,0.663,4.76,1.521,7.536,2.578c0,3.042-0.396,6.445-1.19,10.212
			c-0.793,3.768-2.051,7.371-3.768,10.807c-3.966-1.32-7.437-2.212-10.41-2.677c-2.975-0.461-6.38-0.694-10.213-0.694
			c-8.198,0-14.377,2.677-18.541,8.031c-4.165,5.354-6.247,12.988-6.247,22.903c0,10.708,2.247,18.51,6.742,23.399
			c4.493,4.893,10.575,7.337,18.244,7.337c1.983,0,3.799-0.031,5.453-0.099c1.651-0.065,3.272-0.229,4.858-0.496
			c1.587-0.264,3.204-0.66,4.858-1.189C2259.09,148.889,2261.039,148.226,2263.288,147.433z"/>
		<path d="M2309.094,128.991c0.527,7.932,3.303,13.683,8.329,17.252c5.022,3.569,11.631,5.354,19.83,5.354
			c4.492,0,9.088-0.428,13.782-1.289c4.69-0.857,9.152-2.082,13.385-3.668c1.453,2.646,2.708,5.818,3.768,9.519
			c1.057,3.702,1.651,7.668,1.785,11.897c-10.312,3.966-21.946,5.949-34.901,5.949c-9.519,0-17.683-1.323-24.49-3.966
			c-6.811-2.644-12.362-6.312-16.657-11.006c-4.298-4.691-7.471-10.277-9.519-16.756c-2.051-6.476-3.073-13.55-3.073-21.218
			c0-7.536,1.057-14.606,3.173-21.218c2.112-6.609,5.255-12.359,9.419-17.252c4.164-4.889,9.32-8.756,15.468-11.601
			c6.147-2.841,13.317-4.263,21.516-4.263c7.139,0,13.484,1.258,19.037,3.768c5.552,2.513,10.277,5.949,14.179,10.312
			c3.897,4.363,6.841,9.552,8.824,15.566c1.982,6.017,2.975,12.462,2.975,19.334c0,2.513-0.1,4.991-0.298,7.437
			c-0.198,2.447-0.431,4.396-0.694,5.85H2309.094z M2349.35,109.359c-0.267-6.345-2.018-11.467-5.256-15.368
			c-3.24-3.898-7.768-5.85-13.583-5.85c-6.612,0-11.635,1.853-15.071,5.552c-3.439,3.703-5.487,8.924-6.147,15.666H2349.35z"/>
		<path d="M2396.147,69.105c1.983-0.396,3.867-0.694,5.652-0.892c1.784-0.198,3.733-0.297,5.85-0.297
			c1.982,0,3.932,0.133,5.85,0.396c1.915,0.267,3.799,0.595,5.651,0.991c0.396,0.663,0.76,1.621,1.091,2.875
			c0.328,1.258,0.626,2.578,0.893,3.966c0.264,1.388,0.496,2.776,0.694,4.165s0.362,2.547,0.495,3.47
			c2.906-4.096,6.477-7.765,10.709-11.006c4.229-3.238,9.519-4.858,15.863-4.858c1.32,0,2.842,0.068,4.562,0.198
			c1.717,0.133,2.975,0.332,3.768,0.595c0.264,1.323,0.462,2.844,0.595,4.561c0.13,1.72,0.198,3.504,0.198,5.354
			c0,2.25-0.099,4.694-0.297,7.337c-0.198,2.646-0.564,5.156-1.091,7.535c-1.456-0.263-3.074-0.396-4.858-0.396
			c-1.785,0-2.876,0-3.272,0c-2.249,0-4.759,0.232-7.535,0.694c-2.776,0.465-5.422,1.686-7.932,3.669
			c-2.514,1.983-4.596,4.957-6.247,8.923c-1.654,3.966-2.479,9.518-2.479,16.657v48.781c-2.38,0.396-4.76,0.66-7.139,0.793
			c-2.38,0.131-4.694,0.198-6.94,0.198c-2.25,0-4.53-0.067-6.842-0.198c-2.314-0.133-4.729-0.396-7.238-0.793V69.105z"/>
	</g>
</g>
<g id="Logo" enable-background="new    ">
	<g id="_x201C__x201D_">
		<g>
			<path fill="#222222" d="M248.934,39.69l-26.656-39.27c-59.235,23.71-76.266,47.42-76.266,111.142v108.177h108.845V111.562H192.66
				C194.141,65.624,204.507,52.287,248.934,39.69z M103.066,39.69L76.411,0.421C16.435,24.131,0.145,47.841,0.145,111.562v108.177
				H108.99V111.562H46.792C48.273,65.624,58.64,52.287,103.066,39.69z M474.059,3.385v108.178h62.197
				c-0.74,45.938-11.106,59.275-55.533,71.871l25.916,39.27c59.976-23.71,76.266-47.42,76.266-111.141V3.385H474.059z
				 M328.191,111.562h62.197c-0.74,45.938-11.106,59.275-55.533,71.871l25.916,39.27c59.976-23.71,76.266-47.42,76.266-111.141
				V3.385H328.191V111.562z"/>
		</g>
	</g>
</g>
</svg>
